<?xml version="1.0" standalone="no"?>
<!DOCTYPE svg PUBLIC "-//W3C//DTD SVG 20010904//EN"
 "http://www.w3.org/TR/2001/REC-SVG-20010904/DTD/svg10.dtd">
<svg version="1.0" xmlns="http://www.w3.org/2000/svg"
 width="1300.000000pt" height="1300.000000pt" viewBox="0 0 1300.000000 1300.000000"
 preserveAspectRatio="xMidYMid meet">
<metadata>
Created by potrace 1.11, written by Peter Selinger 2001-2013
</metadata>
<g transform="translate(0.000000,1300.000000) scale(0.100000,-0.100000)"
fill="#000000" stroke="none">
<path d="M6288 11943 c-2 -5 -3 -323 -3 -708 l1 -700 82 -3 82 -3 0 -52 0 -53
-97 -22 c-54 -12 -110 -28 -125 -36 -14 -8 -57 -26 -95 -41 -94 -37 -191 -105
-292 -204 -47 -46 -90 -83 -94 -82 -5 1 -6 -2 -3 -7 3 -5 -15 -34 -40 -65 -24
-31 -44 -61 -44 -66 0 -5 -18 -45 -40 -90 -85 -172 -122 -376 -101 -556 16
-140 42 -230 107 -365 61 -128 107 -193 200 -285 34 -35 60 -66 57 -69 -4 -3
0 -6 8 -6 15 -1 59 -34 59 -46 0 -9 -67 -184 -79 -205 -5 -8 -18 -50 -30 -93
-12 -43 -29 -92 -38 -109 -9 -18 -18 -37 -19 -43 -1 -7 -29 -85 -63 -174 -34
-89 -61 -168 -61 -176 0 -8 -21 -68 -46 -132 -25 -64 -61 -155 -79 -202 -18
-47 -41 -110 -50 -140 -28 -89 -126 -357 -159 -435 -30 -70 -41 -101 -38 -112
2 -9 -5 -10 -28 -2 -16 6 -30 15 -30 21 0 5 14 41 30 80 17 39 33 87 36 107
l6 37 -66 23 c-37 13 -70 21 -73 17 -4 -4 -32 -82 -64 -174 -31 -92 -80 -225
-108 -297 -27 -71 -48 -131 -46 -134 5 -4 91 -37 126 -48 16 -4 39 33 39 64 0
8 12 46 27 84 27 69 40 80 72 60 17 -11 15 -19 -54 -196 -26 -66 -50 -136 -54
-155 -4 -19 -14 -52 -21 -72 -12 -31 -19 -38 -51 -43 -52 -9 -172 -68 -228
-112 -154 -122 -245 -327 -227 -515 11 -115 60 -234 133 -319 24 -28 40 -56
37 -61 -4 -6 -3 -9 2 -6 5 3 16 -2 25 -11 16 -15 14 -22 -13 -93 -21 -53 -35
-75 -44 -71 -8 3 -14 0 -14 -7 0 -6 4 -9 9 -5 25 15 17 -25 -30 -147 -28 -73
-57 -152 -66 -176 -8 -23 -19 -40 -24 -36 -5 3 -6 -1 -3 -9 3 -8 -5 -39 -16
-70 l-21 -56 -41 15 c-22 8 -46 14 -53 14 -6 0 -20 -27 -30 -60 -10 -33 -22
-60 -27 -60 -4 0 -8 -9 -8 -20 0 -23 -21 -72 -34 -82 -10 -7 21 -22 70 -34 33
-8 37 -18 22 -53 l-13 -30 -39 20 c-22 10 -43 19 -46 19 -4 0 -19 -30 -33 -67
-69 -177 -147 -385 -147 -391 0 -5 22 -16 49 -26 48 -17 49 -18 40 -49 -13
-45 -20 -48 -63 -26 -22 10 -43 16 -47 12 -12 -12 -112 -401 -178 -688 -23
-98 -68 -271 -78 -295 -3 -8 -7 -22 -8 -30 -1 -8 -20 -89 -42 -180 -23 -91
-51 -209 -63 -262 -12 -54 -24 -107 -27 -118 -4 -14 -1 -19 8 -15 8 3 21 1 29
-5 17 -11 10 -40 -115 -460 -38 -126 -43 -148 -66 -252 -7 -32 -15 -58 -18
-58 -3 0 -7 -10 -7 -22 -1 -13 -5 -33 -9 -46 -6 -19 -3 -24 14 -29 12 -3 18
-10 14 -17 -4 -6 1 -5 10 3 9 7 17 22 17 32 0 10 16 49 35 86 60 119 145 302
145 313 0 6 39 92 86 190 84 173 88 179 113 174 26 -5 30 1 105 153 79 158
187 379 364 743 52 107 130 266 174 352 44 87 83 171 88 187 8 29 6 31 -37 47
-37 14 -44 21 -39 38 3 12 6 25 6 29 0 5 4 5 10 2 6 -4 7 1 3 11 -7 19 -9 19
58 -10 l36 -15 62 159 c35 87 73 192 86 233 l23 75 -48 20 c-49 20 -49 21 -37
51 13 36 11 36 62 11 22 -10 43 -16 46 -14 4 2 26 56 49 120 47 128 47 128
-22 139 -21 4 -38 8 -38 10 0 8 60 164 81 210 12 28 24 59 25 70 2 17 21 72
111 323 15 42 26 51 38 32 4 -6 10 -8 15 -5 5 3 64 -10 132 -29 112 -31 189
-48 273 -59 17 -2 98 -16 180 -30 261 -46 407 -59 704 -64 352 -7 613 13 916
68 61 11 142 24 180 29 39 5 131 26 205 46 74 20 143 37 153 38 15 1 27 -21
57 -99 22 -55 39 -110 40 -121 0 -12 7 -25 16 -28 9 -4 14 -9 11 -13 -4 -3 -2
-12 4 -19 6 -7 11 -26 11 -43 1 -18 5 -28 11 -24 6 3 7 1 3 -5 -4 -6 3 -34 15
-62 12 -28 19 -53 15 -57 -3 -4 0 -13 8 -22 14 -16 76 -167 76 -187 0 -5 -22
-18 -50 -28 l-49 -18 20 -51 c11 -29 30 -79 42 -112 32 -87 32 -87 70 -65 42
26 51 25 66 -6 14 -32 7 -44 -25 -44 -14 0 -34 -5 -44 -10 -18 -10 -18 -13 9
-93 16 -45 33 -93 39 -107 43 -98 92 -236 87 -247 -2 -8 0 -11 5 -8 6 3 10 -1
10 -9 0 -20 8 -20 53 -1 50 21 52 20 65 -21 10 -33 9 -36 -14 -45 -14 -5 -34
-9 -44 -9 -31 0 -31 -15 1 -59 16 -23 27 -46 24 -52 -4 -5 -2 -8 3 -7 13 4
113 -123 105 -135 -3 -6 -1 -7 5 -3 7 4 12 2 12 -5 0 -13 60 -99 100 -144 35
-38 102 -137 97 -142 -2 -2 13 -22 34 -45 21 -23 35 -47 32 -52 -3 -6 -3 -8 2
-4 4 4 26 -18 48 -50 22 -31 42 -59 46 -62 3 -3 13 -18 21 -35 8 -16 20 -34
26 -40 27 -25 83 -113 76 -120 -4 -5 -1 -5 6 -1 7 4 15 1 18 -8 8 -21 22 -20
78 5 26 11 54 19 62 17 16 -3 61 -98 95 -200 11 -32 37 -96 60 -143 22 -47 37
-91 33 -97 -4 -6 -3 -8 4 -4 6 3 14 -4 18 -16 3 -13 21 -54 39 -93 18 -38 36
-85 40 -104 4 -19 23 -65 41 -102 19 -37 34 -70 34 -74 0 -3 11 -30 24 -58 47
-100 76 -170 76 -182 0 -7 18 -51 40 -98 34 -73 42 -85 60 -80 11 3 23 9 25
13 3 5 -11 50 -31 101 -19 52 -57 164 -83 249 -27 85 -72 220 -101 300 -29 80
-65 188 -80 240 -16 52 -53 165 -82 250 -51 144 -77 225 -127 390 -11 36 -38
115 -61 175 -23 61 -54 151 -71 200 -79 242 -157 457 -168 468 -5 5 -27 3 -50
-4 -46 -14 -56 -9 -66 32 -6 23 -2 27 34 38 22 6 43 15 46 20 2 5 -6 42 -19
82 -24 72 -134 367 -142 381 -3 4 -26 0 -52 -7 -58 -18 -55 -18 -48 1 3 8 2
13 -3 10 -5 -3 -11 1 -15 9 -5 15 48 45 86 48 12 1 14 5 8 11 -6 6 -10 18 -10
27 0 15 -67 198 -76 208 -2 2 -24 -4 -49 -14 -26 -9 -49 -14 -53 -11 -3 4 -12
26 -18 49 -6 23 -30 89 -52 146 -23 58 -39 108 -36 113 3 4 1 8 -5 8 -9 0 -15
14 -26 60 -2 8 -16 40 -36 85 -9 22 -20 57 -24 77 -4 21 -10 36 -14 34 -3 -2
-6 9 -7 25 -1 15 2 27 5 24 4 -2 8 5 8 16 2 16 -1 18 -11 10 -10 -9 -15 -8
-20 5 -9 25 -7 34 9 34 8 0 22 8 32 18 19 19 103 57 103 46 0 -4 7 -1 15 6 8
7 15 9 15 5 0 -5 8 -1 18 8 10 10 22 14 25 10 4 -3 7 -1 7 5 0 9 57 35 85 38
6 0 33 11 60 24 28 13 56 22 62 21 8 -1 10 4 7 14 -4 9 -3 15 2 14 22 -4 35 2
28 13 -4 7 -3 8 4 4 13 -8 68 18 135 64 25 16 51 30 59 30 8 0 19 5 26 12 7 7
12 8 12 2 0 -5 4 -4 8 1 16 23 96 74 106 68 6 -3 8 -3 4 2 -4 4 45 41 110 82
64 42 133 88 153 104 20 16 41 29 46 29 4 0 14 9 20 19 7 11 44 40 83 65 38
25 70 50 70 54 0 5 -15 29 -34 53 -19 23 -32 47 -30 51 3 5 0 7 -8 6 -7 -2
-12 3 -10 10 1 8 -2 11 -7 8 -13 -9 -52 34 -44 48 3 6 3 8 -2 4 -4 -4 -20 9
-35 30 -15 20 -57 68 -94 107 l-66 69 -27 -26 c-16 -14 -53 -41 -83 -61 -30
-20 -84 -59 -120 -87 -36 -27 -71 -48 -78 -45 -7 3 -10 0 -7 -5 3 -5 -11 -19
-32 -30 -21 -11 -76 -45 -123 -76 -46 -30 -90 -52 -97 -50 -7 3 -12 0 -10 -6
2 -13 -448 -247 -478 -248 -11 0 -38 -9 -61 -19 l-40 -18 -11 26 c-31 72 -43
105 -43 116 0 8 17 19 37 26 21 7 51 20 68 30 16 11 38 19 48 19 20 0 243 111
302 150 22 15 51 30 65 33 14 4 47 22 74 39 140 93 212 136 220 131 5 -4 6 -1
2 5 -3 6 3 13 13 17 11 3 45 26 77 50 31 25 61 42 67 38 6 -3 7 -1 3 5 -4 7
-2 12 3 12 6 0 23 14 38 31 16 17 40 37 56 45 15 8 27 18 27 23 0 5 -18 28
-40 52 -21 24 -45 56 -51 71 -6 15 -15 28 -19 28 -13 0 -105 101 -102 112 1 5
-1 7 -5 5 -5 -3 -19 11 -33 30 -14 19 -35 46 -47 60 l-22 25 -53 -36 c-29 -19
-68 -49 -86 -66 -19 -16 -38 -27 -44 -24 -7 4 -8 2 -4 -4 7 -11 -7 -17 -29
-12 -5 1 -7 -2 -3 -5 4 -4 -11 -21 -33 -37 -23 -16 -43 -27 -46 -24 -3 2 -15
-4 -27 -15 -27 -25 -248 -158 -278 -168 -13 -3 -74 -32 -137 -64 -62 -32 -119
-56 -127 -53 -8 3 -14 17 -14 31 0 14 -7 42 -16 63 -8 20 -28 71 -44 112 -15
41 -31 82 -34 91 -5 12 1 19 24 27 29 10 32 9 41 -16 15 -39 42 -134 43 -154
0 -9 4 -14 8 -12 4 3 8 -2 8 -10 0 -9 7 -16 16 -16 30 0 134 42 134 54 0 7
-17 57 -39 112 -107 277 -139 362 -144 389 -3 17 -13 47 -21 67 l-16 37 -67
-25 c-37 -14 -70 -27 -74 -30 -4 -2 10 -46 30 -97 59 -143 58 -137 17 -137
-31 0 -36 4 -42 28 -9 42 -39 127 -84 242 -23 58 -45 116 -50 130 -32 93 -125
351 -155 430 -35 91 -55 146 -118 330 -16 47 -35 99 -42 115 -26 58 -87 221
-102 270 -32 102 -42 133 -83 239 l-42 110 33 27 c19 15 38 25 43 22 5 -4 6
-1 3 4 -8 12 90 116 102 109 4 -3 8 0 8 7 0 10 93 147 113 167 3 3 6 12 7 20
1 8 20 59 43 114 112 267 105 571 -21 844 -23 48 -44 92 -47 98 -30 50 -69
101 -117 152 -34 37 -54 66 -49 73 4 8 3 9 -5 5 -14 -9 -82 54 -74 68 3 5 1 6
-5 2 -15 -9 -55 18 -44 29 4 5 2 5 -4 2 -6 -4 -29 9 -52 28 -22 19 -45 35 -52
35 -6 0 -57 19 -113 43 -56 24 -129 49 -163 56 l-61 13 -2 59 -2 58 83 3 c46
2 82 6 81 11 -2 4 -3 322 -3 707 l0 700 -319 0 c-176 0 -321 -3 -323 -7z m162
-1808 l0 -126 158 3 157 3 3 118 c1 64 6 117 11 117 20 0 166 -52 172 -62 3
-5 9 -9 13 -9 12 2 151 -71 173 -92 12 -11 20 -24 16 -30 -4 -6 -1 -7 6 -3 8
5 39 -19 86 -67 57 -57 71 -77 62 -86 -9 -9 -9 -11 3 -7 22 8 123 -178 156
-289 46 -154 44 -358 -3 -510 -20 -64 -99 -220 -144 -283 -33 -46 -121 -134
-137 -137 -10 -1 -16 -8 -15 -14 2 -6 -7 -16 -20 -22 -12 -7 -35 -23 -51 -36
-33 -28 -140 -83 -218 -113 -127 -49 -427 -51 -567 -4 -40 13 -98 39 -130 56
-51 28 -77 44 -151 95 -47 32 -141 128 -180 184 -178 260 -223 529 -134 811
27 87 85 193 99 180 5 -4 5 -1 1 6 -7 11 28 73 46 80 5 2 6 7 3 12 -5 8 63 79
146 154 58 51 212 132 319 167 129 43 120 50 120 -96z m174 -1871 c3 -9 3 -21
-1 -27 -3 -7 -2 -9 2 -4 8 7 74 -148 78 -183 1 -8 5 -17 8 -20 4 -3 24 -54 44
-115 40 -121 129 -362 151 -411 7 -17 31 -84 53 -150 36 -111 69 -200 142
-383 16 -41 34 -93 39 -116 5 -23 15 -55 21 -71 7 -16 20 -49 29 -74 58 -157
112 -297 119 -311 5 -8 16 -44 25 -78 9 -35 23 -77 31 -95 31 -67 88 -222 89
-243 0 -11 4 -19 7 -17 3 2 11 -12 16 -31 11 -33 10 -34 -21 -40 -17 -4 -58
-13 -91 -20 -33 -8 -85 -16 -115 -19 -30 -2 -107 -11 -170 -20 -224 -32 -548
-38 -805 -15 -215 19 -548 71 -569 90 -4 4 2 33 14 66 27 69 83 217 112 293
11 30 24 71 28 90 5 19 43 123 85 230 43 107 83 218 90 245 7 28 36 111 65
185 62 163 120 321 150 415 13 39 26 75 30 80 4 6 17 37 28 70 11 33 36 99 55
146 19 47 38 101 42 120 7 35 56 169 82 227 8 19 25 64 38 100 13 37 26 75 30
85 9 22 61 23 69 1z m-1359 -2581 c19 -9 31 -21 28 -26 -4 -6 -1 -7 6 -3 16
10 53 -23 47 -41 -3 -7 0 -15 6 -19 7 -5 8 -2 3 6 -6 9 -4 11 4 6 7 -5 10 -15
7 -23 -3 -8 -1 -11 4 -8 11 7 26 -27 32 -71 3 -26 10 -31 58 -47 175 -56 529
-125 745 -146 391 -38 852 -15 1205 60 129 27 295 68 324 79 23 8 25 5 51 -67
14 -41 25 -76 23 -78 -14 -14 -243 -69 -408 -99 -639 -117 -1236 -98 -1835 56
-202 52 -202 52 -258 7 -53 -42 -106 -55 -183 -46 -49 5 -141 57 -136 76 1 7
-2 10 -7 7 -5 -4 -20 8 -33 26 -20 29 -23 44 -23 130 0 91 2 99 30 139 31 44
100 91 123 84 6 -2 12 0 12 5 0 24 120 19 175 -7z"/>
<path d="M5883 9905 c0 -8 4 -12 9 -9 5 3 6 10 3 15 -9 13 -12 11 -12 -6z"/>
<path d="M9339 6093 c-13 -16 -12 -17 4 -4 9 7 17 15 17 17 0 8 -8 3 -21 -13z"/>
<path d="M8820 5135 c-11 -13 -10 -14 4 -9 9 3 16 10 16 15 0 13 -6 11 -20 -6z"/>
</g>
</svg>
